<svg width="111" height="111" viewBox="0 0 111 111" fill="none" xmlns="http://www.w3.org/2000/svg">
<path d="M51.4327 94.161C36.8476 94.1255 4.96957 60.688 7.6785 38.4773C9.58519 22.847 23.6228 13.1513 36.8357 18.5123C43.941 21.3954 47.7698 28.9131 51.5014 35.2257C55.8729 28.3953 61.2185 19.4176 69.2078 16.7336C83.6176 11.8928 96.9312 22.9051 98.3864 39.7109C100.247 61.1928 65.0437 94.1942 51.4339 94.161H51.4327Z" stroke="black" stroke-width="3.86817" stroke-miterlimit="1.5" stroke-linecap="round" stroke-linejoin="round"/>
<path d="M84.3794 17.4102C85.7185 16.154 87.0729 14.9027 88.5139 13.7627" stroke="black" stroke-width="3.86817" stroke-miterlimit="1.5" stroke-linecap="round" stroke-linejoin="round"/>
<path d="M43.4043 23.2666C45.2695 21.969 47.0067 20.5268 48.7961 19.1332" stroke="black" stroke-width="3.86817" stroke-miterlimit="1.5" stroke-linecap="round" stroke-linejoin="round"/>
<path d="M34.3481 17.6544C36.2122 16.3568 37.9506 14.9146 39.7399 13.5199" stroke="black" stroke-width="3.86817" stroke-miterlimit="1.5" stroke-linecap="round" stroke-linejoin="round"/>
<path d="M95.4487 28.541C97.3128 27.2434 99.0512 25.8024 100.841 24.4077" stroke="black" stroke-width="3.86817" stroke-miterlimit="1.5" stroke-linecap="round" stroke-linejoin="round"/>
<path d="M98.1436 45.13C100.008 43.8324 101.746 42.3914 103.535 40.9966" stroke="black" stroke-width="3.86817" stroke-miterlimit="1.5" stroke-linecap="round" stroke-linejoin="round"/>
<path d="M90.6533 62.6539C92.7389 61.7557 94.7298 60.6892 96.7621 59.6796" stroke="black" stroke-width="3.86817" stroke-miterlimit="1.5" stroke-linecap="round" stroke-linejoin="round"/>
<path d="M75.9492 79.7962C78.0372 78.6468 90.0698 72.5606 92.0891 71.3009" stroke="black" stroke-width="3.86817" stroke-miterlimit="1.5" stroke-linecap="round" stroke-linejoin="round"/>
<path d="M61.562 97.1733C63.6287 95.9871 75.5511 89.6876 77.5478 88.3924" stroke="black" stroke-width="3.86817" stroke-miterlimit="1.5" stroke-linecap="round" stroke-linejoin="round"/>
</svg>
