<svg width="111" height="111" viewBox="0 0 111 111" fill="none" xmlns="http://www.w3.org/2000/svg">
<path d="M70.3716 58.2781C61.5495 56.3921 51.7013 57.4155 42.7754 57.5886C40.2089 57.6387 37.5827 57.9711 35.0188 57.8286C34.6843 57.8101 33.2253 57.7407 32.9515 57.37C32.9157 57.3218 34.0536 57.1316 34.6064 57.0503C35.681 56.8921 36.7554 56.7753 37.8293 56.6082C40.6525 56.1692 43.5252 55.9551 46.3733 55.7575C53.6842 55.2515 66.7629 53.6918 73.9083 55.8914C74.2623 56.0003 73.1678 55.8726 72.7976 55.8624C72.1892 55.8459 71.5813 55.822 70.9726 55.803C68.9881 55.741 66.9869 55.6303 65.0022 55.6478C58.6059 55.7035 52.1873 55.4363 45.7928 55.6755C43.8685 55.7476 41.9506 55.8975 40.0255 55.9554C38.9105 55.9886 38.9605 56.0171 37.8082 55.978C37.3085 55.9609 35.923 56.1113 36.3181 55.805C37.0142 55.2654 39.1896 55.4003 40.0309 55.2903C43.8723 54.788 47.7044 54.1324 51.5654 53.7802C61.4657 52.8767 71.5442 52.8747 81.4671 53.2525C85.5262 53.4072 89.6274 52.8092 93.6692 53.2924C83.8619 52.0258 73.6681 52.2056 63.8072 52.2421C52.7046 52.2833 41.6146 52.2861 30.5118 52.5202C25.9537 52.6162 21.4876 53.4841 16.9155 53.4206" stroke="white" stroke-width="2.76298" stroke-miterlimit="1.5" stroke-linecap="round" stroke-linejoin="round"/>
</svg>
