<svg width="104" height="104" viewBox="0 0 104 104" fill="none" xmlns="http://www.w3.org/2000/svg">
<path d="M42.3694 63.2507C38.082 64.0768 33.948 64.8262 29.7407 66.1082C27.1578 49.1554 25.2709 32.1069 24.4036 14.9784C30.519 13.1271 36.7155 12.6912 43.0721 13.0481C42.1793 29.7597 43.0499 46.5169 42.4116 63.2429L42.3694 63.2507Z" stroke="black" stroke-width="3.62945" stroke-miterlimit="1.5" stroke-linecap="round" stroke-linejoin="round"/>
<path d="M38.9514 75.3802C30.6268 73.2209 25.5477 84.611 32.736 89.431C39.0937 93.6939 47.3317 85.2014 43.2021 78.9204" stroke="black" stroke-width="3.62945" stroke-miterlimit="1.5" stroke-linecap="round" stroke-linejoin="round"/>
<path d="M79.2571 24.982C77.2001 38.5403 75.569 52.2498 72.7615 65.6824L59.0742 63.4986C59.0742 51.1234 59.0375 36.2976 59.9882 22.7816C66.3926 22.7338 73.0628 23.2564 79.2571 24.9831V24.982Z" stroke="black" stroke-width="3.62945" stroke-miterlimit="1.5" stroke-linecap="round" stroke-linejoin="round"/>
<path d="M67.1098 76.581C60.1561 74.613 55.3739 85.0068 61.5426 89.0541C68.0471 93.3215 74.6773 83.6548 70.0152 78.2555" stroke="black" stroke-width="3.62945" stroke-miterlimit="1.5" stroke-linecap="round" stroke-linejoin="round"/>
</svg>
