<svg width="104" height="104" viewBox="0 0 104 104" fill="none" xmlns="http://www.w3.org/2000/svg">
<path d="M37.3083 75.4751C32.322 71.5724 26.5173 68.5388 21.8283 64.3602C28.1026 53.833 49.4546 17.144 53.4623 9.32001C53.4866 16.1826 53.5124 22.6707 54.1986 30.1072C60.5301 26.9829 67.8151 23.4048 74.4476 21.5613C65.3363 32.6633 41.7521 70.5488 37.3083 75.4751Z" stroke="#ffbf00" stroke-width="2.59247" stroke-miterlimit="1.5" stroke-linecap="round" stroke-linejoin="round"/>
<path d="M50.7954 94.4153C48.5818 89.875 45.5318 85.7007 42.5076 81.6687C47.6997 78.3156 66.6786 67.0228 73.8171 62.7985C71.1631 67.2737 69.8715 72.5945 67.9509 77.4079C70.3161 78.207 72.8214 78.4886 75.2288 79.1591C77.5733 79.8124 79.7498 80.871 82.1836 81.2198C76.8356 84.8344 55.9583 92.3611 50.7962 94.4153H50.7954Z" stroke="#ffbf00" stroke-width="2.59247" stroke-miterlimit="1.5" stroke-linecap="round" stroke-linejoin="round"/>
</svg>
