<svg width="111" height="111" viewBox="0 0 111 111" fill="none" xmlns="http://www.w3.org/2000/svg">
<path d="M40.2891 38.0515C40.3202 39.837 40.4428 41.6137 40.5557 43.3947" stroke="#ffbf00" stroke-width="2.76298" stroke-miterlimit="1.5" stroke-linecap="round" stroke-linejoin="round"/>
<path d="M33.0405 47.4562C34.299 47.4216 35.5468 47.3167 36.8026 47.2456" stroke="#ffbf00" stroke-width="2.76298" stroke-miterlimit="1.5" stroke-linecap="round" stroke-linejoin="round"/>
<path d="M44.3608 47.4297C45.4586 47.2249 46.5548 47.0116 47.6492 46.7898" stroke="#ffbf00" stroke-width="2.76298" stroke-miterlimit="1.5" stroke-linecap="round" stroke-linejoin="round"/>
<path d="M41.1933 51.165C41.0671 52.8981 40.9356 54.7352 41.1418 56.4745" stroke="#ffbf00" stroke-width="2.76298" stroke-miterlimit="1.5" stroke-linecap="round" stroke-linejoin="round"/>
<path d="M51.2583 79.7227C52.2226 79.6302 53.2313 79.624 54.1859 79.4436" stroke="#ffbf00" stroke-width="2.76298" stroke-miterlimit="1.5" stroke-linecap="round" stroke-linejoin="round"/>
<path d="M58.1924 69.5188C58.0635 71.2945 58.2794 73.0614 58.3239 74.838" stroke="#ffbf00" stroke-width="2.76298" stroke-miterlimit="1.5" stroke-linecap="round" stroke-linejoin="round"/>
<path d="M58.3934 83.363C58.3872 85.0979 58.2539 87.1118 58.5711 88.8262" stroke="#ffbf00" stroke-width="2.76298" stroke-miterlimit="1.5" stroke-linecap="round" stroke-linejoin="round"/>
<path d="M63.6382 79.1281C64.9794 79.0725 66.3171 78.9515 67.6465 78.7655" stroke="#ffbf00" stroke-width="2.76298" stroke-miterlimit="1.5" stroke-linecap="round" stroke-linejoin="round"/>
<path d="M66.9753 21.4868C67.0882 23.3034 67.2517 25.1112 67.2971 26.9314" stroke="#ffbf00" stroke-width="2.76298" stroke-miterlimit="1.5" stroke-linecap="round" stroke-linejoin="round"/>
<path d="M58.957 32.7828C60.3666 32.5749 61.7931 32.5055 63.1964 32.3047" stroke="#ffbf00" stroke-width="2.76298" stroke-miterlimit="1.5" stroke-linecap="round" stroke-linejoin="round"/>
<path d="M67.8977 36.0962C68.2177 38.3927 68.2754 40.9995 68.9153 43.2391" stroke="#ffbf00" stroke-width="2.76298" stroke-miterlimit="1.5" stroke-linecap="round" stroke-linejoin="round"/>
<path d="M73.1208 31.3059C74.5082 31.1486 75.8982 31.1228 77.2874 31.002" stroke="#ffbf00" stroke-width="2.76298" stroke-miterlimit="1.5" stroke-linecap="round" stroke-linejoin="round"/>
</svg>
